<svg xmlns="http://www.w3.org/2000/svg" height="800" width="1200" viewBox="-14.81787 -2.965875 128.42154 17.79525"><path d="M6.8848 0C3.0118 0 0 3.135 0 6.9459c0 1.5987.5533 3.197 1.5982 4.4264l.43.4912.7992-.7983-.3071-.431c-.8605-1.0454-1.2911-2.336-1.2911-3.6883 0-3.1968 2.5823-5.7786 5.7786-5.7786 3.1962 0 5.7786 2.5818 5.7786 5.7786 0 1.3522-.4923 2.6429-1.292 3.6884l-.3062.4309.799.7983.4302-.4912c.8605-1.2908 1.4133-2.8277 1.4133-4.4264 0-3.811-3.073-6.9459-6.946-6.9459zm14.0766 1.4133c-1.967 0-3.3805 1.1686-3.3805 2.8282 0 1.844 1.1677 2.4586 3.2575 2.9504 1.844.3688 2.214.799 2.214 1.4752 0 .7381-.677 1.23-1.722 1.23-1.2293 0-2.2125-.492-3.1345-1.2911L17.15 9.8352c1.1685 1.0455 2.6441 1.537 4.1193 1.537 2.029 0 3.5035-1.1066 3.5035-2.9511 0-1.6596-1.0449-2.3968-3.1353-2.8885-1.9054-.4303-2.3354-.7995-2.3354-1.5371 0-.6767.6148-1.1681 1.5982-1.1681.8606 0 1.7822.3079 2.6433.984l.984-1.1681c-.9834-.799-2.1524-1.23-3.5662-1.23zm5.2866 0v9.774h1.7212V8.0522h1.968c2.1513 0 3.9336-1.1677 3.9336-3.3805 0-1.9675-1.4752-3.2583-3.7495-3.2583zm9.0988 0v9.836h7.376V9.7122h-5.6556V7.0689h4.9184V5.5326h-4.9184V2.9504h5.5945V1.4133zm9.159 0v9.836h7.376V9.7122h-5.6556V7.0689h4.9184V5.5326h-4.9184V2.9504h5.5945V1.4133zm9.098 0v9.836h3.6876c3.0739 0 5.2255-2.1516 5.2255-4.9176 0-2.7666-2.1516-4.9184-5.2255-4.9184zm9.8963 0v1.599h3.136v8.237h1.7205v-8.237h3.1353v-1.599zm9.7749 0v9.836h7.376V9.7122h-5.6548V7.0689h4.9176V5.5326h-4.9176V2.9504h5.5936V1.4133zm12.6014 0c-1.9675 0-3.3813 1.1686-3.3813 2.8282 0 1.844 1.168 2.4586 3.2583 2.9504 1.844.3688 2.2132.799 2.2132 1.4752 0 .7381-.6762 1.23-1.7212 1.23-1.2299 0-2.2127-.492-3.1353-1.2911l-1.045 1.2292c1.1678 1.0455 2.5822 1.5371 4.1803 1.66 2.0284 0 3.5035-1.1063 3.5035-2.9503 0-1.6602-1.0446-2.3984-3.1345-2.8901-1.9054-.4303-2.3362-.7987-2.3362-1.5363 0-.6761.6148-1.1681 1.5982-1.1681.8606 0 1.7828.3073 2.6433.984l.9221-1.2911c-.9834-.799-2.1516-1.23-3.5654-1.23zm4.9176 0v1.599h3.1353v8.237h1.7212v-8.237h3.1353v-1.599zm-62.8248 1.537h2.0291c1.3523 0 2.1513.6148 2.1513 1.7832 0 1.045-.8605 1.7823-2.1513 1.7823h-2.029zm27.417.123h1.9671c2.0904 0 3.4424 1.414 3.4424 3.3195 0 1.9054-1.352 3.3194-3.4424 3.3194h-1.9672zM9.405 3.8726L5.5326 6.9459 6.8848 8.298l3.0734-3.8725z" fill-rule="evenodd"/></svg>